ffmpeg started on 2025-05-13 at 11:01:52
Report written to "D:\Convert\FFMetrics\reports\psnr_report-6.txt"
Log level: 32
Command line:
ffmpeg -hide_banner -nostdin -i "G:\\\xc0\xed\xe8\xec\xe5\\\xce\xed\xe3\xee\xe8\xed\xe3\xe8\\!_35_\xcb\xe5\xf2\xee_2024\\DreamCast-1\\\xdf \xf1\xf2\xe0\xeb \xf1\xe0\xec\xfb\xec \xf1\xe8\xeb\xfc\xed\xfb\xec \xf1 \xef\xf0\xee\xe2\xe0\xeb\xfc\xed\xfb\xec \xed\xe0\xe2\xfb\xea\xee\xec \xab\xed\xe5\xed\xee\xf0\xec\xe0\xeb\xfc\xed\xee\xe5 \xf1\xee\xf1\xf2\xee\xff\xed\xe8\xe5\xbb, \xff \xf0\xe0\xe7\xf0\xf3\xf8\xf3 \xe2\xf1\xb8\\[DC] Hazurewaku - 12_Telegram_HEVC.mkv" -i "G:\\\xc0\xed\xe8\xec\xe5\\\xce\xed\xe3\xee\xe8\xed\xe3\xe8\\!_35_\xcb\xe5\xf2\xee_2024\\DreamCast-1\\\xdf \xf1\xf2\xe0\xeb \xf1\xe0\xec\xfb\xec \xf1\xe8\xeb\xfc\xed\xfb\xec \xf1 \xef\xf0\xee\xe2\xe0\xeb\xfc\xed\xfb\xec \xed\xe0\xe2\xfb\xea\xee\xec \xab\xed\xe5\xed\xee\xf0\xec\xe0\xeb\xfc\xed\xee\xe5 \xf1\xee\xf1\xf2\xee\xff\xed\xe8\xe5\xbb, \xff \xf0\xe0\xe7\xf0\xf3\xf8\xf3 \xe2\xf1\xb8\\[DC] Hazurewaku - 12_Telegram.mp4" -lavfi "[0:v]settb=AVTB,setpts=PTS-STARTPTS,format=pix_fmts=yuv420p10,fps=24000/1001,scale=1920:1080:flags=bicubic[main];[1:v]settb=AVTB,setpts=PTS-STARTPTS,format=pix_fmts=yuv420p,fps=24000/1001,scale=1920:1080:flags=bicubic[ref];[main][ref]psnr=eof_action=endall:stats_file='D\\:/Convert/FFMetrics/logs/psnr_logfile-6.txt'" -f null -
Input #0, matroska,webm, from 'G:\Аниме\Онгоинги\!_35_Лето_2024\DreamCast-1\Я стал самым сильным с провальным навыком «ненормальное состояние», я разрушу всё\[DC] Hazurewaku - 12_Telegram_HEVC.mkv':
  Metadata:
    COMPATIBLE_BRANDS: isomiso2avc1mp41
    MAJOR_BRAND     : isom
    MINOR_VERSION   : 512
    ENCODER         : Lavf61.7.100
  Duration: 00:24:02.82, start: -0.021000, bitrate: 1354 kb/s
  Stream #0:0: Video: hevc (Main 10), yuv420p10le(tv, bt709, progressive), 1920x1080 [SAR 1:1 DAR 16:9], 23.98 fps, 23.98 tbr, 1k tbn (default)
      Metadata:
        HANDLER_NAME    : VideoHandler
        VENDOR_ID       : [0][0][0][0]
        ENCODER         : Lavc61.19.100 libx265
        BPS             : 1158177
        DURATION        : 00:24:01.606708333
        NUMBER_OF_FRAMES: 34564
        NUMBER_OF_BYTES : 208704465
        _STATISTICS_WRITING_APP: mkvpropedit v66.0.0 ('Josie') 64-bit
        _STATISTICS_WRITING_DATE_UTC: 2025-05-11 16:44:58
        _STATISTICS_TAGS: BPS DURATION NUMBER_OF_FRAMES NUMBER_OF_BYTES
  Stream #0:1: Audio: aac (LC), 48000 Hz, stereo, fltp (default)
      Metadata:
        HANDLER_NAME    : SoundHandler
        VENDOR_ID       : [0][0][0][0]
        ENCODER         : Lavc61.19.100 aac
        BPS             : 193267
        DURATION        : 00:24:02.816000000
        NUMBER_OF_FRAMES: 67633
        NUMBER_OF_BYTES : 34856201
        _STATISTICS_WRITING_APP: mkvpropedit v66.0.0 ('Josie') 64-bit
        _STATISTICS_WRITING_DATE_UTC: 2025-05-11 16:44:58
        _STATISTICS_TAGS: BPS DURATION NUMBER_OF_FRAMES NUMBER_OF_BYTES
Input #1, mov,mp4,m4a,3gp,3g2,mj2, from 'G:\Аниме\Онгоинги\!_35_Лето_2024\DreamCast-1\Я стал самым сильным с провальным навыком «ненормальное состояние», я разрушу всё\[DC] Hazurewaku - 12_Telegram.mp4':
  Metadata:
    major_brand     : isom
    minor_version   : 512
    compatible_brands: isomiso2avc1mp41
    encoder         : Lavf61.1.100
  Duration: 00:24:02.77, start: 0.000000, bitrate: 3487 kb/s
  Stream #1:0[0x1](und): Video: h264 (High) (avc1 / 0x31637661), yuv420p(tv, bt709, progressive), 1920x1080 [SAR 1:1 DAR 16:9], 3342 kb/s, 23.98 fps, 23.98 tbr, 24k tbn (default)
      Metadata:
        handler_name    : VideoHandler
        vendor_id       : [0][0][0][0]
        encoder         : Lavc61.3.100 h264_qsv
  Stream #1:1[0x2](und): Audio: aac (HE-AACv2) (mp4a / 0x6134706D), 48000 Hz, stereo, fltp, 144 kb/s (default)
      Metadata:
        handler_name    : SoundHandler
        vendor_id       : [0][0][0][0]
Stream mapping:
  Stream #0:0 (hevc) -> settb:default
  Stream #1:0 (h264) -> settb:default
  psnr:default -> Stream #0:0 (wrapped_avframe)
  Stream #0:1 -> #0:1 (aac (native) -> pcm_s16le (native))
Output #0, null, to 'pipe:':
  Metadata:
    COMPATIBLE_BRANDS: isomiso2avc1mp41
    MAJOR_BRAND     : isom
    MINOR_VERSION   : 512
    encoder         : Lavf61.7.100
  Stream #0:0: Video: wrapped_avframe, yuv420p10le(tv, bt709, progressive), 1920x1080 [SAR 1:1 DAR 16:9], q=2-31, 200 kb/s, 23.98 fps, 23.98 tbn
      Metadata:
        encoder         : Lavc61.19.100 wrapped_avframe
  Stream #0:1: Audio: pcm_s16le, 48000 Hz, stereo, s16, 1536 kb/s (default)
      Metadata:
        HANDLER_NAME    : SoundHandler
        VENDOR_ID       : [0][0][0][0]
        _STATISTICS_TAGS: BPS DURATION NUMBER_OF_FRAMES NUMBER_OF_BYTES
        BPS             : 193267
        DURATION        : 00:24:02.816000000
        NUMBER_OF_FRAMES: 67633
        NUMBER_OF_BYTES : 34856201
        _STATISTICS_WRITING_APP: mkvpropedit v66.0.0 ('Josie') 64-bit
        _STATISTICS_WRITING_DATE_UTC: 2025-05-11 16:44:58
        encoder         : Lavc61.19.100 pcm_s16le
frame=  166 fps=0.0 q=-0.0 size=N/A time=00:00:06.92 bitrate=N/A speed=13.4x    frame=  430 fps=414 q=-0.0 size=N/A time=00:00:17.93 bitrate=N/A speed=17.3x    frame=  660 fps=427 q=-0.0 size=N/A time=00:00:27.52 bitrate=N/A speed=17.8x    frame=  843 fps=408 q=-0.0 size=N/A time=00:00:35.16 bitrate=N/A speed=  17x    frame= 1027 fps=398 q=-0.0 size=N/A time=00:00:42.83 bitrate=N/A speed=16.6x    frame= 1257 fps=405 q=-0.0 size=N/A time=00:00:52.42 bitrate=N/A speed=16.9x    frame= 1479 fps=410 q=-0.0 size=N/A time=00:01:01.68 bitrate=N/A speed=17.1x    frame= 1727 fps=418 q=-0.0 size=N/A time=00:01:12.03 bitrate=N/A speed=17.4x    frame= 1968 fps=424 q=-0.0 size=N/A time=00:01:22.08 bitrate=N/A speed=17.7x    frame= 2236 fps=433 q=-0.0 size=N/A time=00:01:33.25 bitrate=N/A speed=18.1x    frame= 2487 fps=438 q=-0.0 size=N/A time=00:01:43.72 bitrate=N/A speed=18.3x    frame= 2746 fps=444 q=-0.0 size=N/A time=00:01:54.53 bitrate=N/A speed=18.5x    frame= 2972 fps=443 q=-0.0 size=N/A time=00:02:03.95 bitrate=N/A speed=18.5x    frame= 3196 fps=442 q=-0.0 size=N/A time=00:02:13.29 bitrate=N/A speed=18.4x    frame= 3453 fps=446 q=-0.0 size=N/A time=00:02:24.01 bitrate=N/A speed=18.6x    frame= 3713 fps=450 q=-0.0 size=N/A time=00:02:34.86 bitrate=N/A speed=18.8x    frame= 3982 fps=454 q=-0.0 size=N/A time=00:02:46.08 bitrate=N/A speed=18.9x    frame= 4255 fps=458 q=-0.0 size=N/A time=00:02:57.46 bitrate=N/A speed=19.1x    frame= 4529 fps=462 q=-0.0 size=N/A time=00:03:08.89 bitrate=N/A speed=19.3x    frame= 4788 fps=464 q=-0.0 size=N/A time=00:03:19.69 bitrate=N/A speed=19.4x    frame= 5016 fps=463 q=-0.0 size=N/A time=00:03:29.20 bitrate=N/A speed=19.3x    frame= 5239 fps=462 q=-0.0 size=N/A time=00:03:38.50 bitrate=N/A speed=19.2x    frame= 5472 fps=461 q=-0.0 size=N/A time=00:03:48.22 bitrate=N/A speed=19.2x    frame= 5740 fps=464 q=-0.0 size=N/A time=00:03:59.40 bitrate=N/A speed=19.3x    frame= 5973 fps=463 q=-0.0 size=N/A time=00:04:09.12 bitrate=N/A speed=19.3x    frame= 6226 fps=464 q=-0.0 size=N/A time=00:04:19.67 bitrate=N/A speed=19.4x    frame= 6475 fps=465 q=-0.0 size=N/A time=00:04:30.06 bitrate=N/A speed=19.4x    frame= 6710 fps=465 q=-0.0 size=N/A time=00:04:39.86 bitrate=N/A speed=19.4x    frame= 6956 fps=465 q=-0.0 size=N/A time=00:04:50.12 bitrate=N/A speed=19.4x    frame= 7194 fps=465 q=-0.0 size=N/A time=00:05:00.04 bitrate=N/A speed=19.4x    frame= 7389 fps=462 q=-0.0 size=N/A time=00:05:08.18 bitrate=N/A speed=19.3x    frame= 7608 fps=461 q=-0.0 size=N/A time=00:05:17.31 bitrate=N/A speed=19.2x    frame= 7809 fps=459 q=-0.0 size=N/A time=00:05:25.70 bitrate=N/A speed=19.1x    frame= 8024 fps=458 q=-0.0 size=N/A time=00:05:34.66 bitrate=N/A speed=19.1x    frame= 8240 fps=456 q=-0.0 size=N/A time=00:05:43.67 bitrate=N/A speed=  19x    frame= 8489 fps=457 q=-0.0 size=N/A time=00:05:54.06 bitrate=N/A speed=19.1x    frame= 8721 fps=457 q=-0.0 size=N/A time=00:06:03.73 bitrate=N/A speed=19.1x    frame= 8945 fps=456 q=-0.0 size=N/A time=00:06:13.08 bitrate=N/A speed=  19x    frame= 9174 fps=456 q=-0.0 size=N/A time=00:06:22.63 bitrate=N/A speed=  19x    frame= 9401 fps=456 q=-0.0 size=N/A time=00:06:32.10 bitrate=N/A speed=  19x    frame= 9610 fps=455 q=-0.0 size=N/A time=00:06:40.81 bitrate=N/A speed=  19x    frame= 9837 fps=454 q=-0.0 size=N/A time=00:06:50.28 bitrate=N/A speed=18.9x    frame=10079 fps=454 q=-0.0 size=N/A time=00:07:00.37 bitrate=N/A speed=  19x    frame=10294 fps=454 q=-0.0 size=N/A time=00:07:09.34 bitrate=N/A speed=18.9x    frame=10544 fps=454 q=-0.0 size=N/A time=00:07:19.77 bitrate=N/A speed=18.9x    frame=10783 fps=455 q=-0.0 size=N/A time=00:07:29.74 bitrate=N/A speed=  19x    frame=11056 fps=456 q=-0.0 size=N/A time=00:07:41.12 bitrate=N/A speed=  19x    frame=11316 fps=457 q=-0.0 size=N/A time=00:07:51.97 bitrate=N/A speed=19.1x    frame=11574 fps=458 q=-0.0 size=N/A time=00:08:02.73 bitrate=N/A speed=19.1x    frame=11827 fps=459 q=-0.0 size=N/A time=00:08:13.28 bitrate=N/A speed=19.1x    frame=12047 fps=458 q=-0.0 size=N/A time=00:08:22.46 bitrate=N/A speed=19.1x    frame=12286 fps=458 q=-0.0 size=N/A time=00:08:32.42 bitrate=N/A speed=19.1x    frame=12542 fps=459 q=-0.0 size=N/A time=00:08:43.10 bitrate=N/A speed=19.1x    frame=12775 fps=459 q=-0.0 size=N/A time=00:08:52.82 bitrate=N/A speed=19.1x    frame=13030 fps=459 q=-0.0 size=N/A time=00:09:03.45 bitrate=N/A speed=19.2x    frame=13255 fps=459 q=-0.0 size=N/A time=00:09:12.84 bitrate=N/A speed=19.1x    frame=13524 fps=460 q=-0.0 size=N/A time=00:09:24.06 bitrate=N/A speed=19.2x    frame=13772 fps=460 q=-0.0 size=N/A time=00:09:34.40 bitrate=N/A speed=19.2x    frame=14034 fps=461 q=-0.0 size=N/A time=00:09:45.33 bitrate=N/A speed=19.2x    frame=14274 fps=461 q=-0.0 size=N/A time=00:09:55.34 bitrate=N/A speed=19.2x    frame=14545 fps=462 q=-0.0 size=N/A time=00:10:06.64 bitrate=N/A speed=19.3x    frame=14827 fps=464 q=-0.0 size=N/A time=00:10:18.40 bitrate=N/A speed=19.3x    frame=15099 fps=465 q=-0.0 size=N/A time=00:10:29.75 bitrate=N/A speed=19.4x    frame=15376 fps=466 q=-0.0 size=N/A time=00:10:41.30 bitrate=N/A speed=19.4x    frame=15651 fps=467 q=-0.0 size=N/A time=00:10:52.77 bitrate=N/A speed=19.5x    frame=15913 fps=468 q=-0.0 size=N/A time=00:11:03.70 bitrate=N/A speed=19.5x    frame=16174 fps=468 q=-0.0 size=N/A time=00:11:14.59 bitrate=N/A speed=19.5x    frame=16444 fps=469 q=-0.0 size=N/A time=00:11:25.85 bitrate=N/A speed=19.6x    frame=16702 fps=469 q=-0.0 size=N/A time=00:11:36.61 bitrate=N/A speed=19.6x    frame=16960 fps=470 q=-0.0 size=N/A time=00:11:47.37 bitrate=N/A speed=19.6x    frame=17228 fps=470 q=-0.0 size=N/A time=00:11:58.55 bitrate=N/A speed=19.6x    frame=17511 fps=472 q=-0.0 size=N/A time=00:12:10.35 bitrate=N/A speed=19.7x    frame=17753 fps=472 q=-0.0 size=N/A time=00:12:20.44 bitrate=N/A speed=19.7x    frame=18016 fps=472 q=-0.0 size=N/A time=00:12:31.41 bitrate=N/A speed=19.7x    frame=18287 fps=473 q=-0.0 size=N/A time=00:12:42.72 bitrate=N/A speed=19.7x    frame=18528 fps=473 q=-0.0 size=N/A time=00:12:52.77 bitrate=N/A speed=19.7x    frame=18790 fps=473 q=-0.0 size=N/A time=00:13:03.69 bitrate=N/A speed=19.7x    frame=19063 fps=474 q=-0.0 size=N/A time=00:13:15.08 bitrate=N/A speed=19.8x    frame=19293 fps=474 q=-0.0 size=N/A time=00:13:24.67 bitrate=N/A speed=19.8x    frame=19520 fps=473 q=-0.0 size=N/A time=00:13:34.14 bitrate=N/A speed=19.7x    frame=19773 fps=473 q=-0.0 size=N/A time=00:13:44.69 bitrate=N/A speed=19.7x    frame=20018 fps=473 q=-0.0 size=N/A time=00:13:54.91 bitrate=N/A speed=19.7x    frame=20264 fps=474 q=-0.0 size=N/A time=00:14:05.17 bitrate=N/A speed=19.7x    frame=20525 fps=474 q=-0.0 size=N/A time=00:14:16.06 bitrate=N/A speed=19.8x    frame=20780 fps=474 q=-0.0 size=N/A time=00:14:26.69 bitrate=N/A speed=19.8x    frame=21043 fps=474 q=-0.0 size=N/A time=00:14:37.66 bitrate=N/A speed=19.8x    frame=21308 fps=475 q=-0.0 size=N/A time=00:14:48.72 bitrate=N/A speed=19.8x    frame=21582 fps=476 q=-0.0 size=N/A time=00:15:00.14 bitrate=N/A speed=19.8x    frame=21838 fps=476 q=-0.0 size=N/A time=00:15:10.82 bitrate=N/A speed=19.8x    frame=22088 fps=476 q=-0.0 size=N/A time=00:15:21.25 bitrate=N/A speed=19.9x    frame=22337 fps=476 q=-0.0 size=N/A time=00:15:31.63 bitrate=N/A speed=19.9x    frame=22586 fps=476 q=-0.0 size=N/A time=00:15:42.02 bitrate=N/A speed=19.9x    frame=22801 fps=475 q=-0.0 size=N/A time=00:15:50.99 bitrate=N/A speed=19.8x    frame=23021 fps=475 q=-0.0 size=N/A time=00:16:00.16 bitrate=N/A speed=19.8x    frame=23264 fps=475 q=-0.0 size=N/A time=00:16:10.30 bitrate=N/A speed=19.8x    frame=23497 fps=475 q=-0.0 size=N/A time=00:16:20.02 bitrate=N/A speed=19.8x    frame=23746 fps=475 q=-0.0 size=N/A time=00:16:30.40 bitrate=N/A speed=19.8x    frame=23902 fps=473 q=-0.0 size=N/A time=00:16:36.91 bitrate=N/A speed=19.7x    frame=24095 fps=472 q=-0.0 size=N/A time=00:16:44.96 bitrate=N/A speed=19.7x    frame=24351 fps=472 q=-0.0 size=N/A time=00:16:55.63 bitrate=N/A speed=19.7x    frame=24603 fps=472 q=-0.0 size=N/A time=00:17:06.15 bitrate=N/A speed=19.7x    frame=24820 fps=472 q=-0.0 size=N/A time=00:17:15.20 bitrate=N/A speed=19.7x    frame=25040 fps=471 q=-0.0 size=N/A time=00:17:24.37 bitrate=N/A speed=19.7x    frame=25194 fps=470 q=-0.0 size=N/A time=00:17:30.79 bitrate=N/A speed=19.6x    frame=25425 fps=470 q=-0.0 size=N/A time=00:17:40.43 bitrate=N/A speed=19.6x    frame=25636 fps=469 q=-0.0 size=N/A time=00:17:49.23 bitrate=N/A speed=19.6x    frame=25858 fps=469 q=-0.0 size=N/A time=00:17:58.49 bitrate=N/A speed=19.5x    frame=26066 fps=468 q=-0.0 size=N/A time=00:18:07.16 bitrate=N/A speed=19.5x    frame=26258 fps=467 q=-0.0 size=N/A time=00:18:15.17 bitrate=N/A speed=19.5x    frame=26463 fps=467 q=-0.0 size=N/A time=00:18:23.72 bitrate=N/A speed=19.5x    frame=26679 fps=466 q=-0.0 size=N/A time=00:18:32.73 bitrate=N/A speed=19.4x    frame=26913 fps=466 q=-0.0 size=N/A time=00:18:42.49 bitrate=N/A speed=19.4x    frame=27139 fps=466 q=-0.0 size=N/A time=00:18:51.92 bitrate=N/A speed=19.4x    frame=27352 fps=465 q=-0.0 size=N/A time=00:19:00.80 bitrate=N/A speed=19.4x    frame=27589 fps=465 q=-0.0 size=N/A time=00:19:10.69 bitrate=N/A speed=19.4x    frame=27831 fps=465 q=-0.0 size=N/A time=00:19:20.78 bitrate=N/A speed=19.4x    frame=28077 fps=465 q=-0.0 size=N/A time=00:19:31.04 bitrate=N/A speed=19.4x    frame=28302 fps=465 q=-0.0 size=N/A time=00:19:40.42 bitrate=N/A speed=19.4x    frame=28577 fps=466 q=-0.0 size=N/A time=00:19:51.89 bitrate=N/A speed=19.4x    frame=28849 fps=466 q=-0.0 size=N/A time=00:20:03.24 bitrate=N/A speed=19.4x    frame=29109 fps=467 q=-0.0 size=N/A time=00:20:14.08 bitrate=N/A speed=19.5x    frame=29368 fps=467 q=-0.0 size=N/A time=00:20:24.89 bitrate=N/A speed=19.5x    frame=29614 fps=467 q=-0.0 size=N/A time=00:20:35.15 bitrate=N/A speed=19.5x    frame=29834 fps=467 q=-0.0 size=N/A time=00:20:44.32 bitrate=N/A speed=19.5x    frame=30043 fps=466 q=-0.0 size=N/A time=00:20:53.04 bitrate=N/A speed=19.4x    frame=30232 fps=465 q=-0.0 size=N/A time=00:21:00.92 bitrate=N/A speed=19.4x    frame=30465 fps=465 q=-0.0 size=N/A time=00:21:10.64 bitrate=N/A speed=19.4x    frame=30650 fps=464 q=-0.0 size=N/A time=00:21:18.36 bitrate=N/A speed=19.4x    frame=30886 fps=464 q=-0.0 size=N/A time=00:21:28.20 bitrate=N/A speed=19.4x    frame=31118 fps=464 q=-0.0 size=N/A time=00:21:37.87 bitrate=N/A speed=19.4x    frame=31372 fps=464 q=-0.0 size=N/A time=00:21:48.47 bitrate=N/A speed=19.4x    frame=31657 fps=465 q=-0.0 size=N/A time=00:22:00.36 bitrate=N/A speed=19.4x    frame=31892 fps=465 q=-0.0 size=N/A time=00:22:10.16 bitrate=N/A speed=19.4x    frame=32099 fps=464 q=-0.0 size=N/A time=00:22:18.79 bitrate=N/A speed=19.4x    frame=32316 fps=464 q=-0.0 size=N/A time=00:22:27.84 bitrate=N/A speed=19.4x    frame=32499 fps=463 q=-0.0 size=N/A time=00:22:35.47 bitrate=N/A speed=19.3x    frame=32655 fps=462 q=-0.0 size=N/A time=00:22:41.98 bitrate=N/A speed=19.3x    frame=32868 fps=462 q=-0.0 size=N/A time=00:22:50.86 bitrate=N/A speed=19.3x    frame=33044 fps=461 q=-0.0 size=N/A time=00:22:58.21 bitrate=N/A speed=19.2x    frame=33210 fps=460 q=-0.0 size=N/A time=00:23:05.13 bitrate=N/A speed=19.2x    frame=33349 fps=458 q=-0.0 size=N/A time=00:23:10.93 bitrate=N/A speed=19.1x    frame=33482 fps=457 q=-0.0 size=N/A time=00:23:16.47 bitrate=N/A speed=19.1x    frame=33629 fps=456 q=-0.0 size=N/A time=00:23:22.60 bitrate=N/A speed=  19x    frame=33752 fps=454 q=-0.0 size=N/A time=00:23:27.73 bitrate=N/A speed=  19x    frame=33915 fps=453 q=-0.0 size=N/A time=00:23:34.53 bitrate=N/A speed=18.9x    frame=34075 fps=452 q=-0.0 size=N/A time=00:23:41.21 bitrate=N/A speed=18.9x    frame=34222 fps=451 q=-0.0 size=N/A time=00:23:47.34 bitrate=N/A speed=18.8x    frame=34382 fps=450 q=-0.0 size=N/A time=00:23:54.01 bitrate=N/A speed=18.8x    [Parsed_psnr_10 @ 0000019c875097c0] PSNR y:48.762453 u:50.878420 v:51.031055 average:49.377716 min:39.835615 max:inf
[out#0/null @ 0000019c874c6240] video:14852KiB audio:270532KiB subtitle:0KiB other streams:0KiB global headers:0KiB muxing overhead: unknown
frame=34564 fps=450 q=-0.0 Lsize=N/A time=00:24:01.60 bitrate=N/A speed=18.8x    
